<svg xmlns="http://www.w3.org/2000/svg" viewBox="0 0 64 64" width="64" height="64">
  <defs>
    <linearGradient id="hg" x1="0%" y1="0%" x2="100%" y2="100%">
      <stop offset="0%" stop-color="#FBBF24"/>
      <stop offset="100%" stop-color="#F59E0B"/>
    </linearGradient>
    <linearGradient id="cg" x1="0%" y1="0%" x2="100%" y2="100%">
      <stop offset="0%" stop-color="#EA580C"/>
      <stop offset="100%" stop-color="#DC2626"/>
    </linearGradient>
  </defs>
  <!-- Hexagons scaled and shifted up -->
  <g transform="translate(0,-4) scale(0.85)">
    <polygon points="32,2 38,5.5 38,12.5 32,16 26,12.5 26,5.5" fill="url(#hg)"/>
    <polygon points="23,11 29,14.5 29,21.5 23,25 17,21.5 17,14.5" fill="url(#hg)"/>
    <polygon points="41,11 47,14.5 47,21.5 41,25 35,21.5 35,14.5" fill="url(#hg)"/>
    <polygon points="14,20 20,23.5 20,30.5 14,34 8,30.5 8,23.5" fill="url(#hg)"/>
    <polygon points="32,20 38,23.5 38,30.5 32,34 26,30.5 26,23.5" fill="url(#cg)"/>
    <polygon points="50,20 56,23.5 56,30.5 50,34 44,30.5 44,23.5" fill="url(#hg)"/>
    <polygon points="23,29 29,32.5 29,39.5 23,43 17,39.5 17,32.5" fill="url(#hg)"/>
    <polygon points="41,29 47,32.5 47,39.5 41,43 35,39.5 35,32.5" fill="url(#hg)"/>
    <polygon points="32,38 38,41.5 38,48.5 32,52 26,48.5 26,41.5" fill="url(#hg)"/>
  </g>
  <!-- Text -->
  <text x="32" y="56" font-family="'JetBrains Mono', monospace" font-size="9" font-weight="700" fill="#F59E0B" text-anchor="middle" letter-spacing="1">NIMBUS</text>
  <text x="32" y="62" font-family="'JetBrains Mono', monospace" font-size="4" fill="#D97706" text-anchor="middle" opacity=".8">CLOUD CLI</text>
</svg>
