<svg xmlns="http://www.w3.org/2000/svg" viewBox="0 0 400 300" width="400" height="300">
  <defs>
    <linearGradient id="hexGradientFlow" x1="0%" y1="0%" x2="100%" y2="100%">
      <stop offset="0%" style="stop-color:#FBBF24;stop-opacity:1" />
      <stop offset="100%" style="stop-color:#F59E0B;stop-opacity:1" />
    </linearGradient>
    <linearGradient id="coreGradientFlow" x1="0%" y1="0%" x2="100%" y2="100%">
      <stop offset="0%" style="stop-color:#EA580C;stop-opacity:1" />
      <stop offset="100%" style="stop-color:#DC2626;stop-opacity:1" />
    </linearGradient>
    <linearGradient id="activeGradient" x1="0%" y1="0%" x2="100%" y2="100%">
      <stop offset="0%" style="stop-color:#FEF3C7;stop-opacity:1" />
      <stop offset="100%" style="stop-color:#FCD34D;stop-opacity:1" />
    </linearGradient>
  </defs>

  <style>
    .hex-row1 { animation: flowPulse 2s ease-in-out infinite; }
    .hex-row2 { animation: flowPulse 2s ease-in-out infinite 0.4s; }
    .hex-row3 { animation: flowPulse 2s ease-in-out infinite 0.8s; }
    .hex-row4 { animation: flowPulse 2s ease-in-out infinite 1.2s; }
    .hex-row5 { animation: flowPulse 2s ease-in-out infinite 1.6s; }

    @keyframes flowPulse {
      0%, 60%, 100% {
        fill: url(#hexGradientFlow);
        filter: none;
      }
      30% {
        fill: url(#activeGradient);
        filter: drop-shadow(0 0 8px #FBBF24);
      }
    }

    .core-hex {
      animation: coreGlow 2s ease-in-out infinite 0.8s;
    }

    @keyframes coreGlow {
      0%, 60%, 100% {
        fill: url(#coreGradientFlow);
        filter: none;
      }
      30% {
        fill: #FF6B35;
        filter: drop-shadow(0 0 12px #EA580C);
      }
    }

    .progress-text {
      animation: dots 1.5s steps(4, end) infinite;
    }

    @keyframes dots {
      0% { opacity: 1; }
      25% { opacity: 0.7; }
      50% { opacity: 0.4; }
      75% { opacity: 0.7; }
      100% { opacity: 1; }
    }
  </style>

  <!-- Row 1 - Top -->
  <polygon class="hex-row1" points="200,30 220,41.5 220,64.5 200,76 180,64.5 180,41.5" fill="url(#hexGradientFlow)" />

  <!-- Row 2 -->
  <polygon class="hex-row2" points="170,65 190,76.5 190,99.5 170,111 150,99.5 150,76.5" fill="url(#hexGradientFlow)" />
  <polygon class="hex-row2" points="230,65 250,76.5 250,99.5 230,111 210,99.5 210,76.5" fill="url(#hexGradientFlow)" />

  <!-- Row 3 - Middle -->
  <polygon class="hex-row3" points="140,100 160,111.5 160,134.5 140,146 120,134.5 120,111.5" fill="url(#hexGradientFlow)" />
  <polygon class="core-hex" points="200,100 220,111.5 220,134.5 200,146 180,134.5 180,111.5" fill="url(#coreGradientFlow)" />
  <polygon class="hex-row3" points="260,100 280,111.5 280,134.5 260,146 240,134.5 240,111.5" fill="url(#hexGradientFlow)" />

  <!-- Row 4 -->
  <polygon class="hex-row4" points="170,135 190,146.5 190,169.5 170,181 150,169.5 150,146.5" fill="url(#hexGradientFlow)" />
  <polygon class="hex-row4" points="230,135 250,146.5 250,169.5 230,181 210,169.5 210,146.5" fill="url(#hexGradientFlow)" />

  <!-- Row 5 - Bottom -->
  <polygon class="hex-row5" points="200,170 220,181.5 220,204.5 200,216 180,204.5 180,181.5" fill="url(#hexGradientFlow)" />

  <!-- Text -->
  <text x="200" y="255" text-anchor="middle" font-family="'JetBrains Mono', monospace" font-size="32" font-weight="600" fill="#1F2937" letter-spacing="10">NIMBUS</text>
  <text class="progress-text" x="200" y="280" text-anchor="middle" font-family="'JetBrains Mono', monospace" font-size="10" font-weight="400" fill="#6B7280" letter-spacing="1">$ applying changes...</text>
</svg>
