<svg xmlns="http://www.w3.org/2000/svg" viewBox="0 0 400 300" width="400" height="300">
  <defs>
    <linearGradient id="hexGradientPulse" x1="0%" y1="0%" x2="100%" y2="100%">
      <stop offset="0%" style="stop-color:#FBBF24;stop-opacity:1" />
      <stop offset="100%" style="stop-color:#F59E0B;stop-opacity:1" />
    </linearGradient>
    <linearGradient id="coreGradientPulse" x1="0%" y1="0%" x2="100%" y2="100%">
      <stop offset="0%" style="stop-color:#EA580C;stop-opacity:1" />
      <stop offset="100%" style="stop-color:#DC2626;stop-opacity:1" />
    </linearGradient>

    <!-- Glow filter for core -->
    <filter id="glow" x="-50%" y="-50%" width="200%" height="200%">
      <feGaussianBlur stdDeviation="4" result="coloredBlur"/>
      <feMerge>
        <feMergeNode in="coloredBlur"/>
        <feMergeNode in="SourceGraphic"/>
      </feMerge>
    </filter>
  </defs>

  <style>
    .outer-hex {
      animation: outerPulse 2s ease-in-out infinite;
    }
    .outer-hex:nth-child(2) { animation-delay: 0.1s; }
    .outer-hex:nth-child(3) { animation-delay: 0.2s; }
    .outer-hex:nth-child(4) { animation-delay: 0.3s; }
    .outer-hex:nth-child(5) { animation-delay: 0.4s; }
    .outer-hex:nth-child(6) { animation-delay: 0.5s; }
    .outer-hex:nth-child(7) { animation-delay: 0.6s; }
    .outer-hex:nth-child(8) { animation-delay: 0.7s; }

    .core-hex {
      animation: corePulse 1.5s ease-in-out infinite;
      filter: url(#glow);
    }

    @keyframes outerPulse {
      0%, 100% { opacity: 0.7; }
      50% { opacity: 1; }
    }

    @keyframes corePulse {
      0%, 100% {
        opacity: 1;
        transform: scale(1);
        transform-origin: 200px 123px;
      }
      50% {
        opacity: 0.8;
        transform: scale(1.05);
        transform-origin: 200px 123px;
      }
    }
  </style>

  <!-- Outer Hexagons -->
  <polygon class="outer-hex" points="200,30 220,41.5 220,64.5 200,76 180,64.5 180,41.5" fill="url(#hexGradientPulse)" />
  <polygon class="outer-hex" points="170,65 190,76.5 190,99.5 170,111 150,99.5 150,76.5" fill="url(#hexGradientPulse)" />
  <polygon class="outer-hex" points="230,65 250,76.5 250,99.5 230,111 210,99.5 210,76.5" fill="url(#hexGradientPulse)" />
  <polygon class="outer-hex" points="140,100 160,111.5 160,134.5 140,146 120,134.5 120,111.5" fill="url(#hexGradientPulse)" />
  <polygon class="outer-hex" points="260,100 280,111.5 280,134.5 260,146 240,134.5 240,111.5" fill="url(#hexGradientPulse)" />
  <polygon class="outer-hex" points="170,135 190,146.5 190,169.5 170,181 150,169.5 150,146.5" fill="url(#hexGradientPulse)" />
  <polygon class="outer-hex" points="230,135 250,146.5 250,169.5 230,181 210,169.5 210,146.5" fill="url(#hexGradientPulse)" />
  <polygon class="outer-hex" points="200,170 220,181.5 220,204.5 200,216 180,204.5 180,181.5" fill="url(#hexGradientPulse)" />

  <!-- Core Hexagon (Pulsing) -->
  <polygon class="core-hex" points="200,100 220,111.5 220,134.5 200,146 180,134.5 180,111.5" fill="url(#coreGradientPulse)" />

  <!-- Text -->
  <text x="200" y="255" text-anchor="middle" font-family="'JetBrains Mono', monospace" font-size="32" font-weight="600" fill="#1F2937" letter-spacing="10">NIMBUS</text>
  <text x="200" y="280" text-anchor="middle" font-family="'JetBrains Mono', monospace" font-size="10" font-weight="400" fill="#6B7280" letter-spacing="1">$ thinking...</text>
</svg>
